<?xml version="1.0" encoding="UTF-8" standalone="no"?>
<!-- Created with Inkscape (http://www.inkscape.org/) -->

<svg
   xmlns:dc="http://purl.org/dc/elements/1.1/"
   xmlns:cc="http://creativecommons.org/ns#"
   xmlns:rdf="http://www.w3.org/1999/02/22-rdf-syntax-ns#"
   xmlns:svg="http://www.w3.org/2000/svg"
   xmlns="http://www.w3.org/2000/svg"
   xmlns:sodipodi="http://sodipodi.sourceforge.net/DTD/sodipodi-0.dtd"
   xmlns:inkscape="http://www.inkscape.org/namespaces/inkscape"
   width="336.46301"
   height="436.35001"
   viewBox="0 0 89.022503 115.45094"
   version="1.1"
   id="svg8"
   inkscape:version="0.92.3 (2405546, 2018-03-11)"
   sodipodi:docname="logo.svg">
  <defs
     id="defs2">
    <clipPath
       id="clipPath833"
       clipPathUnits="userSpaceOnUse">
      <path
         inkscape:connector-curvature="0"
         id="path831"
         d="M 0,799.92 H 799.92 V 0 H 0 Z" />
    </clipPath>
    <clipPath
       id="clipPath945"
       clipPathUnits="userSpaceOnUse">
      <path
         inkscape:connector-curvature="0"
         id="path943"
         d="M 81.7451,695.095 H 390.906 V 561.825 H 81.7451 Z" />
    </clipPath>
    <clipPath
       id="clipPath965"
       clipPathUnits="userSpaceOnUse">
      <path
         inkscape:connector-curvature="0"
         id="path963"
         d="M 460.957,690.042 H 713.834 V 566.879 H 460.957 Z" />
    </clipPath>
    <clipPath
       id="clipPath985"
       clipPathUnits="userSpaceOnUse">
      <path
         inkscape:connector-curvature="0"
         id="path983"
         d="M 68.1846,467.316 H 404.467 V 361.409 H 68.1846 Z" />
    </clipPath>
    <clipPath
       id="clipPath1041"
       clipPathUnits="userSpaceOnUse">
      <path
         inkscape:connector-curvature="0"
         id="path1039"
         d="M 72.7314,282.283 H 398.239 V 150.989 H 72.7314 Z" />
    </clipPath>
    <clipPath
       id="clipPath1069"
       clipPathUnits="userSpaceOnUse">
      <path
         inkscape:connector-curvature="0"
         id="path1067"
         d="M 470.318,282.613 H 704.474 V 150.661 H 470.318 Z" />
    </clipPath>
    <clipPath
       id="clipPath1097"
       clipPathUnits="userSpaceOnUse">
      <path
         inkscape:connector-curvature="0"
         id="path1095"
         d="M 412.591,502.684 H 731.735 V 360.704 H 412.591 Z" />
    </clipPath>
    <linearGradient
       id="linearGradient1323"
       spreadMethod="pad"
       gradientTransform="matrix(767.00092,-791,-791,-767.00092,24.474121,787.27588)"
       gradientUnits="userSpaceOnUse"
       y2="0"
       x2="1"
       y1="0"
       x1="0">
      <stop
         id="stop1313"
         offset="0"
         style="stop-opacity:1;stop-color:#eaeaea" />
      <stop
         id="stop1315"
         offset="0.183857"
         style="stop-opacity:1;stop-color:#ffffff" />
      <stop
         id="stop1317"
         offset="0.623318"
         style="stop-opacity:1;stop-color:#ffffff" />
      <stop
         id="stop1319"
         offset="0.932736"
         style="stop-opacity:1;stop-color:#e6e6e6" />
      <stop
         id="stop1321"
         offset="1"
         style="stop-opacity:1;stop-color:#c0c0c0" />
    </linearGradient>
    <clipPath
       id="clipPath1333"
       clipPathUnits="userSpaceOnUse">
      <path
         inkscape:connector-curvature="0"
         id="path1331"
         d="M 0,800 H 800 V 0 H 0 Z" />
    </clipPath>
    <clipPath
       id="clipPath1465"
       clipPathUnits="userSpaceOnUse">
      <path
         inkscape:connector-curvature="0"
         id="path1463"
         d="M 0,800 H 800 V 0 H 0 Z" />
    </clipPath>
    <clipPath
       id="clipPath1473"
       clipPathUnits="userSpaceOnUse">
      <path
         inkscape:connector-curvature="0"
         id="path1471"
         d="M 445.545,698.744 H 714.329 V 437.068 H 445.545 Z" />
    </clipPath>
    <clipPath
       id="clipPath1973"
       clipPathUnits="userSpaceOnUse">
      <path
         inkscape:connector-curvature="0"
         id="path1971"
         d="M 0,800 H 800 V 0 H 0 Z" />
    </clipPath>
    <clipPath
       id="clipPath1989"
       clipPathUnits="userSpaceOnUse">
      <path
         inkscape:connector-curvature="0"
         id="path1987"
         d="M 0,800 H 800 V 0 H 0 Z" />
    </clipPath>
    <clipPath
       id="clipPath2005"
       clipPathUnits="userSpaceOnUse">
      <path
         inkscape:connector-curvature="0"
         id="path2003"
         d="M 99.4985,698.301 H 375.677 V 433.981 H 99.4985 Z" />
    </clipPath>
    <clipPath
       id="clipPath2465"
       clipPathUnits="userSpaceOnUse">
      <path
         inkscape:connector-curvature="0"
         id="path2463"
         d="M 417.975,373.652 H 730.212 V 111.316 H 417.975 Z" />
    </clipPath>
    <clipPath
       id="clipPath3253"
       clipPathUnits="userSpaceOnUse">
      <path
         inkscape:connector-curvature="0"
         id="path3251"
         d="M 107.821,373.25 H 363.285 V 123.07 H 107.821 Z" />
    </clipPath>
    <clipPath
       id="clipPath3511"
       clipPathUnits="userSpaceOnUse">
      <path
         inkscape:connector-curvature="0"
         id="path3509"
         d="M 0,800 H 800 V 0 H 0 Z" />
    </clipPath>
  </defs>
  <sodipodi:namedview
     id="base"
     pagecolor="#ffffff"
     bordercolor="#666666"
     borderopacity="1.0"
     inkscape:pageopacity="0.0"
     inkscape:pageshadow="2"
     inkscape:zoom="0.7"
     inkscape:cx="152.98176"
     inkscape:cy="187.73956"
     inkscape:document-units="mm"
     inkscape:current-layer="layer1"
     showgrid="false"
     inkscape:snap-nodes="true"
     inkscape:window-width="1366"
     inkscape:window-height="705"
     inkscape:window-x="-8"
     inkscape:window-y="-8"
     inkscape:window-maximized="1"
     units="px" />
  <metadata
     id="metadata5">
    <rdf:RDF>
      <cc:Work
         rdf:about="">
        <dc:format>image/svg+xml</dc:format>
        <dc:type
           rdf:resource="http://purl.org/dc/dcmitype/StillImage" />
        <dc:title />
      </cc:Work>
    </rdf:RDF>
  </metadata>
  <g
     inkscape:label="Livello 1"
     inkscape:groupmode="layer"
     id="layer1"
     transform="translate(0,-181.54905)">
    <g
       id="g1093"
       transform="matrix(0.94910589,0,0,-0.94910589,-444.37134,647.596)" />
    <g
       id="g865"
       transform="matrix(0.94904978,0,0,0.94904978,2.267858,12.186274)">
      <path
         id="path1115"
         d="m 65.585217,225.77019 c -1.18139,0.003 -2.38332,0.0821 -3.59927,0.23823 1.06999,0.67642 2.11721,1.43364 2.89595,2.21226 1.04894,1.04877 1.82381,2.17867 2.24586,3.25407 0.21102,0.5377 0.33821,1.06541 0.33021,1.59576 -0.008,0.53037 -0.17696,1.09879 -0.59169,1.5136 -0.56007,0.55973 -1.35592,0.66266 -2.07068,0.55295 -0.60456,-0.0928 -1.22201,-0.38767 -1.84381,-0.72658 h -0.12299 l -0.21859,-0.13281 c -0.71119,-0.42796 -1.43135,-0.99237 -2.11357,-1.67379 -1.04912,-1.04978 -2.05689,-2.58905 -2.88251,-4.01216 -1.43107,1.14742 -2.95379,2.12734 -4.57233,2.84582 -0.12215,0.0543 -0.243,0.10652 -0.36535,0.15812 h -0.002 c -0.0204,0.009 -0.0388,0.0183 -0.0563,0.0253 h -0.002 c -0.10069,0.042 -0.20412,0.0855 -0.3085,0.12713 -0.0427,0.017 -0.0858,0.0329 -0.12713,0.0491 -0.0764,0.0299 -0.15267,0.06 -0.23047,0.0894 -0.0774,0.0293 -0.15458,0.0586 -0.23048,0.0863 -0.0416,0.0152 -0.0825,0.0292 -0.12506,0.0444 -0.10385,0.0372 -0.20914,0.0739 -0.31419,0.10956 h -0.002 c -0.0242,0.008 -0.0451,0.0157 -0.0625,0.0217 -0.11797,0.0398 -0.23647,0.0791 -0.35553,0.1168 l -0.008,0.002 -0.008,0.002 c 8e-4,0 -0.005,0.002 -0.0176,0.006 h -0.002 l -0.004,0.002 c -1.27846,0.40228 -2.64081,0.59035 -4.01164,0.74207 0.42975,1.59951 0.80447,3.42294 0.8046,4.92167 1.2e-4,1.48335 -0.25046,2.82977 -0.71262,3.88865 -0.23107,0.52944 -0.51359,0.99249 -0.89452,1.36168 -0.38092,0.36918 -0.90379,0.65201 -1.49034,0.65215 -0.58664,5e-5 -1.10942,-0.28297 -1.49035,-0.65215 -0.38092,-0.36919 -0.663418,-0.83224 -0.894521,-1.36168 -0.462211,-1.05888 -0.714565,-2.40532 -0.714687,-3.88865 4.7e-5,-0.68655 0.09996,-1.46159 0.228928,-2.25051 -17.750576,11.18475 -35.814084,2.68582 -41.645519,-4.84776 9.945449,24.21085 30.047789,23.54172 48.636819,11.14505 16.2104,-10.81045 32.2267,-7.02991 40.38565,1.76113 -2.50117,-11.03196 -12.03009,-18.00566 -23.43681,-17.97926 z m -6.21306,0.69142 c -0.2824,0.0616 -0.56511,0.12675 -0.84853,0.19689 l 0.11059,0.22944 c 0.66399,1.37849 2.07528,3.30627 3.17035,4.40232 0.57593,0.57526 1.17975,1.04241 1.74201,1.38286 l 0.0233,0.0134 c 0.58906,0.35477 1.13465,0.56083 1.50378,0.61753 0.36913,0.0567 0.46799,-0.0189 0.48059,-0.0315 0.009,-0.009 0.0482,-0.0409 0.0512,-0.23409 0.003,-0.19323 -0.0536,-0.51186 -0.20154,-0.88884 -0.29588,-0.75397 -0.93746,-1.72878 -1.83193,-2.62309 -1.04357,-1.04341 -2.83975,-2.36668 -4.19974,-3.06493 z m -7.71168,2.72388 c -0.007,0.003 -0.0134,0.006 -0.0202,0.01 0.0359,0.17913 0.1456,0.7242 0.15245,0.75912 0.0352,-0.0145 0.0698,-0.0281 0.10542,-0.0429 0.0129,-0.005 0.0255,-0.0105 0.0372,-0.0155 -0.0279,-0.0558 -0.21411,-0.54974 -0.27492,-0.71055 z m 0.48576,0.64182 c -0.002,9.9e-4 -0.002,9.9e-4 -0.003,0.002 10e-4,-5.4e-4 0.002,-0.001 0.003,-0.002 z m -0.003,0.002 c -0.0342,0.0155 -0.0642,0.0384 -0.0987,0.0532 0.0448,-0.0237 0.09,-0.0471 0.0899,-0.047 -7e-5,0 0.005,-0.003 0.009,-0.006 z m -1.34307,0.50023 c -0.31324,0.10821 -0.6376,0.1642 -0.95498,0.25579 0.13248,-0.0385 0.2811,-0.0352 0.41238,-0.0765 10e-4,0 0.003,-10e-4 0.004,-0.002 10e-4,-2.6e-4 0.003,2.7e-4 0.004,0 0.0122,-0.004 0.027,-0.009 0.0491,-0.016 0.10343,-0.0329 0.20565,-0.0667 0.30851,-0.10128 0.0235,-0.008 0.0434,-0.0136 0.0605,-0.0196 0.039,-0.0132 0.0778,-0.0273 0.11679,-0.0408 z m -5.70301,2.93626 c -0.0861,0.0654 -0.17238,0.12901 -0.25838,0.19534 -0.38732,0.29868 -0.77555,0.58367 -1.16376,0.86246 -0.25307,1.23008 -0.40559,2.59661 -0.40566,3.61529 1.1e-4,1.26486 0.23454,2.40621 0.55862,3.14864 0.16203,0.37121 0.34746,0.637 0.48628,0.77153 0.13877,0.13486 0.18792,0.13074 0.20102,0.13074 0.0133,0 0.0627,0.004 0.20154,-0.13074 0.13884,-0.13455 0.32427,-0.40037 0.48627,-0.77153 0.32399,-0.74234 0.55873,-1.8838 0.55863,-3.14864 -1.2e-4,-1.32479 -0.2708,-3.24116 -0.66456,-4.67309 z m 26.79733,6.6125 c -19.77495,0.10798 -40.683648,29.30125 -69.799358,6.42908 28.952975,37.96544 58.287808,-17.78361 86.298608,2.10271 -5.51449,-6.31176 -10.96226,-8.56202 -16.49925,-8.53179 z"
         style="fill:#1a1a1a;fill-opacity:1;fill-rule:evenodd;stroke:none;stroke-width:0.45937419"
         inkscape:connector-curvature="0" />
      <path
         inkscape:connector-curvature="0"
         id="path1737"
         d="m 44.508767,181.54908 c -1.1018,0 -2.01116,1.88153 -2.151813,4.3184 -0.0062,0.10773 -0.01106,0.21643 -0.01422,0.32622 -0.0032,0.10989 -0.0055,0.22034 -0.0055,0.33206 0,1.68274 0.363903,4.06638 0.921813,5.6634 -2.231173,0.13712 -4.362718,0.63913 -6.337529,1.44578 -0.0038,0.002 -0.0077,0.003 -0.01148,0.005 -0.114362,0.0468 -0.22824,0.0946 -0.341534,0.14343 -0.02255,0.01 -0.0451,0.0194 -0.06761,0.0292 -0.0962,0.0419 -0.191996,0.0846 -0.287407,0.12793 -0.03819,0.0173 -0.07635,0.0347 -0.114453,0.0523 -0.0782,0.0361 -0.156169,0.0726 -0.233825,0.10971 -0.05598,0.0267 -0.111883,0.0537 -0.16767,0.0809 -0.0602,0.0294 -0.120199,0.0593 -0.180062,0.0893 -0.0688,0.0345 -0.137454,0.0693 -0.205942,0.10461 -0.04942,0.0255 -0.09863,0.0514 -0.147803,0.0773 -0.07443,0.0392 -0.148668,0.0788 -0.222709,0.11901 -0.04372,0.0237 -0.08734,0.0476 -0.130856,0.0716 -0.08305,0.0459 -0.165874,0.0923 -0.248404,0.13942 -0.0285,0.0163 -0.05688,0.0328 -0.08529,0.0492 -0.09342,0.054 -0.18648,0.10861 -0.279206,0.16421 -0.02175,0.013 -0.04337,0.0263 -0.06506,0.0394 -0.09434,0.0571 -0.188342,0.11475 -0.281939,0.1735 -0.02395,0.015 -0.04775,0.0302 -0.07162,0.0454 -0.09391,0.0595 -0.187538,0.11958 -0.280664,0.18079 -0.01743,0.0114 -0.03472,0.0231 -0.05212,0.0346 -0.09514,0.063 -0.190012,0.12661 -0.284308,0.19136 -0.02225,0.0153 -0.04434,0.0308 -0.06652,0.0461 -0.08921,0.0618 -0.178206,0.12413 -0.266631,0.18754 -0.03094,0.0222 -0.06159,0.0447 -0.0924,0.0671 -0.07483,0.0543 -0.149554,0.10873 -0.223801,0.1642 -0.05392,0.0402 -0.107247,0.0812 -0.160744,0.12193 -0.05542,0.0423 -0.110954,0.0843 -0.166029,0.12721 -0.08105,0.0631 -0.161248,0.12724 -0.241299,0.19154 -0.02394,0.0192 -0.04812,0.038 -0.07199,0.0574 -0.220523,0.17881 -0.43742,0.36184 -0.650083,0.54967 -0.137216,-0.28406 -0.301209,-0.5836 -0.481138,-0.88938 -4.33e-4,-7.2e-4 -8.59e-4,-0.001 -0.0013,-0.002 -0.0017,-0.003 -0.0036,-0.006 -0.0053,-0.009 -0.03862,-0.0655 -0.07713,-0.13098 -0.117187,-0.19701 l -7.68e-4,7.7e-4 c -0.773225,-1.27579 -1.829948,-2.64115 -2.747766,-3.55896 -1.944018,-1.94402 -4.207264,-2.83174 -5.055774,-1.9836 -0.847759,0.84813 0.04016,3.11139 1.983053,5.05541 1.118094,1.11809 2.901242,2.4443 4.376713,3.20995 0.09511,0.0497 0.189099,0.0973 0.281211,0.14179 -0.282758,0.32007 -0.555047,0.64952 -0.817205,0.98724 -0.0091,0.0117 -0.01776,0.0235 -0.02679,0.0352 -0.07513,0.0972 -0.149699,0.19497 -0.223074,0.29359 -0.01813,0.0244 -0.03575,0.049 -0.05376,0.0734 -0.06401,0.0869 -0.127632,0.17397 -0.190268,0.26189 -0.0239,0.0335 -0.04723,0.0673 -0.0709,0.10097 -0.0551,0.0784 -0.110016,0.15684 -0.164023,0.236 -0.02587,0.0379 -0.05133,0.076 -0.07691,0.1141 -0.05245,0.078 -0.10463,0.1563 -0.156005,0.2351 -0.02428,0.0373 -0.04816,0.0747 -0.07217,0.11208 -0.05323,0.0828 -0.105972,0.16602 -0.15801,0.24968 -0.01703,0.0274 -0.03378,0.0549 -0.05066,0.0824 -0.05809,0.0944 -0.115484,0.18925 -0.172043,0.28468 -0.0116,0.0196 -0.0231,0.0392 -0.03463,0.0589 -0.0626,0.10644 -0.1243,0.21343 -0.184982,0.32112 -0.0032,0.006 -0.0062,0.0112 -0.0093,0.0168 -0.06551,0.11651 -0.129944,0.23362 -0.193183,0.35156 -0.0018,0.003 -0.0037,0.007 -0.0055,0.0102 -1.32456,2.47379 -2.146837,5.25693 -2.328598,8.21433 -1.597019,-0.5579 -3.980486,-0.92255 -5.662845,-0.92255 -2.748918,0 -4.976302,0.97204 -4.976678,2.17206 0,0.68646 0.730314,1.29815 1.869512,1.6962 7.68e-4,2.7e-4 0.0016,4.5e-4 0.0024,9e-4 0.106187,0.037 0.215195,0.0725 0.32823,0.10569 0.0991,0.0291 0.201458,0.0563 0.30545,0.0824 0.0243,0.006 0.04834,0.0123 0.0729,0.0182 0.09188,0.0221 0.185539,0.0429 0.280846,0.0625 0.04331,0.009 0.08705,0.0175 0.131037,0.0259 0.07214,0.0137 0.145194,0.0266 0.219063,0.0388 0.06836,0.0114 0.137444,0.022 0.207217,0.0321 0.05528,0.008 0.111005,0.0155 0.167123,0.0226 0.08522,0.0109 0.171367,0.0206 0.258429,0.0295 0.05529,0.006 0.110596,0.0112 0.166576,0.016 0.06662,0.006 0.133469,0.0111 0.20102,0.0157 0.03871,0.003 0.078,0.005 0.117005,0.007 0.118637,0.007 0.238257,0.012 0.359395,0.0151 0.03173,9.1e-4 0.06362,0.001 0.0955,0.002 0.06616,0.001 0.131479,0.004 0.198287,0.004 1.682302,-1.4e-4 4.062238,-0.36582 5.659564,-0.92363 0.283274,4.60574 2.117988,8.78935 4.988525,12.03919 -1.524086,0.7346 -3.468225,2.16058 -4.658471,3.35119 -1.577983,1.5787 -2.456547,3.36486 -2.277021,4.4354 8.59e-4,0.005 0.002,0.0105 0.0029,0.0159 0.0057,0.0316 0.01215,0.0626 0.01968,0.093 0.0027,0.0112 0.0056,0.0222 0.0086,0.0332 0.0026,0.01 0.0046,0.0197 0.0075,0.0292 h 0.0014 c 0.05219,0.17547 0.137136,0.32771 0.259158,0.44979 0.848879,0.8482 3.111506,-0.0401 5.054863,-1.98378 1.189306,-1.18897 2.616022,-3.13155 3.35065,-4.65538 0.533661,0.47124 1.09294,0.9139 1.674687,1.32696 0.0032,0.002 0.0065,0.005 0.0097,0.007 0.10814,0.0767 0.217066,0.15232 0.326772,0.2269 0.01564,0.0106 0.03136,0.0211 0.04702,0.0317 0.09762,0.066 0.195685,0.13127 0.294515,0.19555 0.02207,0.0144 0.04422,0.0286 0.06634,0.0428 0.0974,0.0628 0.195244,0.12492 0.293786,0.18608 0.01683,0.0104 0.03381,0.0206 0.05067,0.031 0.101229,0.0624 0.202859,0.12415 0.305268,0.1848 0.01938,0.0115 0.03891,0.0227 0.05832,0.0341 0.09858,0.0579 0.197604,0.11521 0.297248,0.1715 0.02225,0.0126 0.0446,0.0249 0.06689,0.0374 0.102191,0.0572 0.2049,0.11365 0.308184,0.16912 0.01492,0.008 0.02989,0.0159 0.04483,0.0239 0.110762,0.0591 0.222077,0.11732 0.334063,0.17442 0.0073,0.004 0.01471,0.007 0.02205,0.0111 2.377778,1.20866 5.027691,1.9585 7.835067,2.13104 -0.12744,0.36543 -0.24356,0.7746 -0.34882,1.2043 h 0.005 c -0.35518,1.44862 -0.572719,3.16052 -0.572806,4.45837 2.26e-4,2.74819 0.972956,4.97677 2.172406,4.97667 1.19971,-2.8e-4 2.17226,-2.22848 2.17205,-4.97667 -1.5e-4,-1.68337 -0.36622,-4.0663 -0.92437,-5.66285 1.65586,-0.10207 3.25679,-0.40575 4.77985,-0.885 0.0124,-0.004 0.0248,-0.008 0.0372,-0.0117 0.11363,-0.036 0.22677,-0.073 0.33953,-0.111 0.0208,-0.007 0.0417,-0.0139 0.0625,-0.0209 0.10023,-0.0341 0.2001,-0.069 0.29961,-0.10462 0.04,-0.0143 0.08,-0.0288 0.11992,-0.0434 0.0736,-0.0269 0.14712,-0.0541 0.22034,-0.0818 0.0738,-0.0279 0.14737,-0.0563 0.22089,-0.0851 0.0406,-0.0159 0.0812,-0.0319 0.12174,-0.0481 0.0983,-0.0392 0.19633,-0.0795 0.29415,-0.12029 0.019,-0.008 0.0379,-0.0159 0.0569,-0.0239 0.1172,-0.0494 0.23404,-0.0999 0.35047,-0.15163 1.8308,-0.8127 3.56537,-1.91163 5.13487,-3.29925 0.73415,1.52413 2.16005,3.46639 3.34974,4.65682 0.63196,0.63122 1.29655,1.14976 1.93566,1.53436 h 0.006 c 1.32829,0.79997 2.54559,1.0191 3.11828,0.44633 0.84794,-0.84809 -0.0402,-3.11123 -1.9836,-5.05432 -1.18996,-1.18977 -3.13301,-2.61747 -4.65683,-3.3521 3.05558,-3.45636 4.71605,-7.71087 4.98415,-12.03702 1.597,0.55708 3.9789,0.92182 5.66084,0.92182 1.97882,2.8e-4 3.68718,-0.50361 4.48934,-1.23346 0.0344,-0.0313 0.0674,-0.063 0.0984,-0.0951 3.9e-4,-4.3e-4 9e-4,-8.1e-4 0.001,-0.001 0.0303,-0.0313 0.0587,-0.063 0.0857,-0.0949 0.19739,-0.234 0.30542,-0.48683 0.30545,-0.75069 0,-1.19918 -2.22876,-2.17129 -4.97722,-2.17186 -1.68327,1.4e-4 -4.06629,0.36617 -5.6634,0.92455 -0.26802,-4.32749 -1.93013,-8.58301 -4.98725,-12.03992 0.85608,-0.41289 1.84468,-1.04458 2.75762,-1.72973 0.001,-8.1e-4 0.002,-0.002 0.003,-0.002 0.18388,-0.13805 0.36399,-0.27832 0.54,-0.41936 0.0174,-0.0139 0.0353,-0.0278 0.0527,-0.0417 9.1e-4,-7.7e-4 0.002,-0.002 0.003,-0.002 0.19234,-0.15518 0.37869,-0.31116 0.55678,-0.46619 0.0895,-0.0779 0.17686,-0.15555 0.26189,-0.23273 0.0851,-0.0772 0.1678,-0.15394 0.24786,-0.23 9e-4,-7.2e-4 0.001,-0.001 0.002,-0.002 0.0793,-0.0754 0.15586,-0.15005 0.22963,-0.2238 9.1e-4,-6.4e-4 0.001,-0.001 0.002,-0.002 0.0601,-0.0601 0.11893,-0.12053 0.17696,-0.18116 9e-4,-6.8e-4 10e-4,-0.001 0.002,-0.002 0.17525,-0.18321 0.34107,-0.36889 0.49699,-0.55531 1.4617,-1.74769 2.04918,-3.57397 1.30654,-4.31694 -0.84836,-0.84821 -3.11126,0.0402 -5.05486,1.9836 -0.14929,0.14932 -0.30231,0.31058 -0.45726,0.48132 -0.15438,0.1701 -0.31058,0.34959 -0.46692,0.53636 -0.0782,0.0934 -0.1564,0.18854 -0.23437,0.28522 -0.0773,0.0958 -0.1543,0.19295 -0.23092,0.29142 -9e-4,9.5e-4 -10e-4,0.002 -0.002,0.003 -0.0773,0.0994 -0.15417,0.2001 -0.23036,0.30162 -0.15245,0.20314 -0.30228,0.41002 -0.4476,0.61837 -0.43603,0.62512 -0.83161,1.26318 -1.13797,1.85256 -0.0504,0.097 -0.0986,0.19275 -0.14397,0.28686 -1.99459,-1.76332 -4.25517,-3.06101 -6.64171,-3.89575 -0.0207,-0.007 -0.0415,-0.0145 -0.0623,-0.0217 -0.0964,-0.0334 -0.19298,-0.066 -0.28978,-0.0979 -0.0462,-0.0153 -0.0925,-0.0303 -0.13887,-0.0452 -0.0755,-0.0242 -0.15102,-0.048 -0.22672,-0.0713 -0.0637,-0.0197 -0.12754,-0.0391 -0.19154,-0.0581 -0.0614,-0.0182 -0.12277,-0.0361 -0.18425,-0.0538 -0.0772,-0.0222 -0.1546,-0.044 -0.23219,-0.0652 -0.0442,-0.0121 -0.0884,-0.0239 -0.13268,-0.0357 -0.0964,-0.0257 -0.19313,-0.0509 -0.29014,-0.0753 -0.0284,-0.007 -0.0569,-0.014 -0.0853,-0.021 -0.10603,-0.0261 -0.21225,-0.0516 -0.31894,-0.076 -0.0221,-0.005 -0.0442,-0.01 -0.0663,-0.0148 -0.11773,-0.0265 -0.23579,-0.0521 -0.3543,-0.0765 -10e-4,-2.7e-4 -0.002,-6.4e-4 -0.004,-9.1e-4 -0.003,-5.9e-4 -0.006,-0.001 -0.009,-0.002 -0.12904,-0.0265 -0.25846,-0.0518 -0.38838,-0.0758 -0.001,-2e-4 -0.002,-5e-4 -0.003,-7.7e-4 -0.003,-4.9e-4 -0.006,-9.5e-4 -0.009,-0.001 -0.12819,-0.0236 -0.25678,-0.0462 -0.38582,-0.0674 -0.0108,-0.002 -0.0216,-0.004 -0.0324,-0.005 -0.12231,-0.0199 -0.24493,-0.0387 -0.36797,-0.0563 -0.0163,-0.002 -0.0326,-0.004 -0.0488,-0.007 -0.11943,-0.0168 -0.23912,-0.033 -0.35921,-0.0478 -10e-4,-1.7e-4 -0.003,-3.6e-4 -0.005,-5.4e-4 -0.01,-0.001 -0.0192,-0.002 -0.0288,-0.003 -0.12407,-0.015 -0.2483,-0.0292 -0.37306,-0.0419 -9e-4,-9e-5 -10e-4,-2.8e-4 -0.002,-3.6e-4 -0.0119,-0.001 -0.0238,-0.002 -0.0357,-0.003 -0.12234,-0.0122 -0.24497,-0.0238 -0.36796,-0.0339 -3.9e-4,-4e-5 -9e-4,-1.5e-4 -10e-4,-1.9e-4 -0.13509,-0.0111 -0.27026,-0.0208 -0.40551,-0.0292 0.55811,-1.59717 0.92404,-3.98041 0.92364,-5.66394 0,-0.0579 -0.002,-0.11443 -0.003,-0.17186 -9e-4,-0.045 -0.001,-0.0898 -0.002,-0.1345 -0.003,-0.10509 -0.007,-0.20898 -0.013,-0.31219 -0.003,-0.049 -0.005,-0.0983 -0.008,-0.14689 -0.005,-0.072 -0.0104,-0.14322 -0.0166,-0.21414 -0.003,-0.0362 -0.007,-0.0718 -0.0104,-0.10771 -0.011,-0.11244 -0.0235,-0.22339 -0.0377,-0.33279 -0.005,-0.0409 -0.0108,-0.0815 -0.0166,-0.12193 -0.0124,-0.0873 -0.0258,-0.17348 -0.0403,-0.25861 -0.01,-0.0589 -0.0203,-0.11739 -0.0311,-0.17514 -0.0101,-0.0531 -0.0203,-0.10573 -0.0311,-0.15783 -0.0172,-0.0829 -0.0352,-0.16464 -0.0543,-0.24494 -0.0105,-0.0441 -0.0217,-0.0872 -0.0328,-0.13049 -0.0182,-0.0714 -0.0371,-0.14177 -0.0569,-0.21086 -0.01,-0.0349 -0.02,-0.0697 -0.0304,-0.10407 -0.0249,-0.0824 -0.0507,-0.16261 -0.0776,-0.24129 -0.008,-0.0229 -0.0155,-0.046 -0.0235,-0.0685 -0.032,-0.0904 -0.0656,-0.17784 -0.10024,-0.26281 -0.009,-0.023 -0.0188,-0.0458 -0.0284,-0.0683 -0.012,-0.0283 -0.024,-0.0564 -0.0362,-0.084 -0.007,-0.0164 -0.0148,-0.0323 -0.0222,-0.0485 -0.38991,-0.85345 -0.91791,-1.37871 -1.49991,-1.37871 z m 0.002,12.41609 c 2.03851,-1.2e-4 4.07693,0.33797 6.02315,1.01385 0.0251,0.009 0.0502,0.0177 0.0753,0.0266 0.0881,0.031 0.17599,0.0633 0.26371,0.0957 0.0979,0.0365 0.19575,0.0734 0.29288,0.11154 0.019,0.007 0.038,0.0148 0.057,0.0222 4.95026,1.96246 8.84602,6.02797 10.57975,11.08822 0.0162,0.0476 0.0322,0.0952 0.0479,0.14289 0.0242,0.0725 0.0478,0.14539 0.0711,0.21833 0.0324,0.10219 0.0642,0.20445 0.0948,0.30709 0.005,0.0182 0.0108,0.0363 0.0162,0.0545 0.99539,3.38387 0.99425,7.00113 -0.004,10.38438 -3.9e-4,10e-4 -9e-4,0.004 -10e-4,0.005 -9.1e-4,0.003 -0.001,0.005 -0.002,0.008 -0.0342,0.11561 -0.0701,0.23069 -0.10662,0.34573 -0.0202,0.0631 -0.0407,0.12616 -0.0616,0.189 -0.0187,0.0568 -0.0378,0.11342 -0.0571,0.17003 -0.0414,0.12067 -0.0834,0.24115 -0.12721,0.36067 -1.74463,4.75543 -5.41255,8.5907 -10.05633,10.55861 -3.9e-4,1.8e-4 -9e-4,3.7e-4 -0.001,3.9e-4 -9.1e-4,3.6e-4 -10e-4,9e-4 -0.002,0.001 -0.11057,0.0468 -0.22204,0.0918 -0.3337,0.13651 -0.0711,0.0282 -0.14225,0.0562 -0.2136,0.0835 -0.0453,0.0174 -0.0907,0.0347 -0.13614,0.0518 -4.41797,1.64929 -9.350644,1.53392 -13.696384,-0.34719 -0.0095,-0.004 -0.01907,-0.008 -0.02861,-0.0126 -0.106195,-0.0462 -0.211822,-0.0939 -0.317297,-0.14216 -0.06581,-0.0303 -0.131439,-0.0609 -0.196829,-0.092 -0.0502,-0.0237 -0.100326,-0.0476 -0.150355,-0.0718 -0.115061,-0.056 -0.229656,-0.11263 -0.343358,-0.17095 -3.276178,-1.68037 -5.981708,-4.32169 -7.742308,-7.54913 -0.0086,-0.0159 -0.01713,-0.0319 -0.0257,-0.0477 -0.05162,-0.0953 -0.102032,-0.19129 -0.151996,-0.28759 -0.03484,-0.0676 -0.06958,-0.13514 -0.103517,-0.20303 -0.02177,-0.0432 -0.04326,-0.0867 -0.0647,-0.13012 -2.419161,-4.93705 -2.480112,-10.74674 -0.182431,-15.72774 0.01042,-0.0224 0.02084,-0.0449 0.03135,-0.0673 0.04308,-0.0924 0.08742,-0.18448 0.13213,-0.27629 0.03776,-0.077 0.07582,-0.15394 0.114634,-0.23036 0.01732,-0.0343 0.03476,-0.0686 0.05231,-0.10279 1.819947,-3.52846 4.755111,-6.392 8.336805,-8.12048 0.116885,-0.0564 0.234772,-0.11096 0.353017,-0.16493 0.04653,-0.0211 0.09311,-0.042 0.139785,-0.0627 0.06889,-0.0308 0.138067,-0.061 0.207399,-0.0909 0.107196,-0.0459 0.214695,-0.0913 0.322581,-0.13505 0.0079,-0.003 0.01579,-0.006 0.02369,-0.01 2.197793,-0.88867 4.534577,-1.33334 6.871534,-1.33352 z m -0.002,1.29926 c -9.35542,0 -16.966848,7.61176 -16.966848,16.96795 0,9.3558 7.611428,16.96721 16.966848,16.96721 9.35617,0 16.96795,-7.61141 16.96795,-16.96721 0,-9.35618 -7.61178,-16.96795 -16.96795,-16.96795 z m -1.84327,3.11955 v 7.82725 c -0.386845,0.11842 -0.757484,0.2737 -1.108618,0.46053 l -5.535999,-5.53544 c 1.891762,-1.45004 4.165074,-2.42526 6.644437,-2.75234 z m 3.68763,0 c 2.47861,0.32708 4.75175,1.30232 6.64426,2.75196 l -5.53545,5.53582 c -0.35189,-0.18646 -0.72196,-0.34211 -1.10881,-0.46053 z m 9.25206,5.35942 c 1.45003,1.8925 2.42526,4.16598 2.75196,6.64497 h -7.82686 c -0.11805,-0.38684 -0.27407,-0.75728 -0.46092,-1.10879 z m -22.192111,3.6e-4 5.535453,5.53582 c -0.186846,0.35151 -0.342132,0.72195 -0.460179,1.10879 h -7.827235 c 0.327073,-2.47898 1.301378,-4.75211 2.75178,-6.64461 z m 11.095691,4.70457 c 2.09026,0 3.7844,1.69378 3.7844,3.78404 0,2.08988 -1.69414,3.78386 -3.7844,3.78386 -2.089131,0 -3.783127,-1.69398 -3.783127,-3.78386 0,-2.09026 1.693996,-3.78404 3.783127,-3.78404 z m 1.8e-4,1.49772 c -1.26242,0 -2.285765,1.02371 -2.285765,2.2865 0,1.26205 1.023345,2.28577 2.285765,2.28577 1.26281,0 2.2865,-1.02372 2.2865,-2.28577 0,-1.26279 -1.02369,-2.2865 -2.2865,-2.2865 z m -13.847832,4.13031 h 7.827053 c 0.118048,0.38649 0.273346,0.75713 0.459816,1.10826 l -5.535089,5.53582 c -1.450402,-1.89213 -2.424707,-4.16546 -2.75178,-6.64408 z m 19.868982,0 h 7.82687 c -0.3267,2.47862 -1.30157,4.75195 -2.75159,6.64408 l -5.53619,-5.53618 c 0.18685,-0.35113 0.34287,-0.72141 0.46091,-1.1079 z m -8.973764,3.71624 c 0.351511,0.18685 0.722137,0.34213 1.108984,0.46055 v 7.82669 c -2.479363,-0.3267 -4.752664,-1.30177 -6.644802,-2.7514 z m 5.905424,0 5.53581,5.53584 c -1.89251,1.44963 -4.16601,2.42471 -6.64462,2.7514 v -7.82669 c 0.38685,-0.11842 0.75692,-0.2737 1.10881,-0.46055 z"
         style="fill:#1a1a1a;fill-opacity:1;fill-rule:nonzero;stroke:none;stroke-width:0.37594628" />
      <g
         transform="translate(-0.36940453)"
         id="g868">
        <text
           xml:space="preserve"
           style="font-style:normal;font-variant:normal;font-weight:bold;font-stretch:normal;font-size:19.06897926px;line-height:1.25;font-family:Bitter;-inkscape-font-specification:'Bitter, Bold';font-variant-ligatures:normal;font-variant-caps:normal;font-variant-numeric:normal;font-feature-settings:normal;text-align:center;letter-spacing:0px;word-spacing:0px;writing-mode:lr-tb;text-anchor:middle;fill:#1a1a1a;fill-opacity:1;stroke:none;stroke-width:0.51959789"
           x="44.447136"
           y="279.29568"
           id="text5740"><tspan
             sodipodi:role="line"
             x="44.447136"
             y="279.29568"
             style="font-style:normal;font-variant:normal;font-weight:bold;font-stretch:normal;font-size:19.06897926px;font-family:Bitter;-inkscape-font-specification:'Bitter, Bold';font-variant-ligatures:normal;font-variant-caps:normal;font-variant-numeric:normal;font-feature-settings:normal;text-align:center;writing-mode:lr-tb;text-anchor:middle;fill:#1a1a1a;fill-opacity:1;stroke-width:0.51959789"
             id="tspan5742">Sardinian</tspan></text>
        <text
           xml:space="preserve"
           style="font-style:normal;font-variant:normal;font-weight:bold;font-stretch:normal;font-size:15.60189247px;line-height:1.25;font-family:Bitter;-inkscape-font-specification:'Bitter, Bold';font-variant-ligatures:normal;font-variant-caps:normal;font-variant-numeric:normal;font-feature-settings:normal;text-align:start;letter-spacing:0px;word-spacing:0px;writing-mode:lr-tb;text-anchor:start;fill:#1a1a1a;fill-opacity:1;stroke:none;stroke-width:0.26003152"
           x="23.595045"
           y="296.62372"
           id="text931"><tspan
             sodipodi:role="line"
             id="tspan929"
             x="23.595045"
             y="296.62372"
             style="font-style:normal;font-variant:normal;font-weight:bold;font-stretch:normal;font-size:15.60189247px;font-family:Bitter;-inkscape-font-specification:'Bitter, Bold';font-variant-ligatures:normal;font-variant-caps:normal;font-variant-numeric:normal;font-feature-settings:normal;text-align:start;writing-mode:lr-tb;text-anchor:start;fill:#1a1a1a;fill-opacity:1;stroke-width:0.26003152">travel</tspan></text>
      </g>
    </g>
  </g>
</svg>
